<mxfile host="app.diagrams.net" modified="2024-05-18T08:01:43.307Z" agent="Mozilla/5.0 (Windows NT 10.0; Win64; x64) AppleWebKit/537.36 (KHTML, like Gecko) Chrome/125.0.0.0 Safari/537.36" version="24.4.4" etag="Jx08DQ13UcPzdAVKAS1u" type="github">
  <diagram name="Halaman-1" id="3oRWnFOsv6FFNhr9Xycc">
    <mxGraphModel>
      <root>
        <mxCell id="0" />
        <mxCell id="1" parent="0" />
      </root>
    </mxGraphModel>
  </diagram>
</mxfile>
